# xmcd
#
# Track frame offsets: 
#        150
#        15822
#        30665
#        46836
#        64604
#        85008
#        102983
#        119229
#        139267
#        158169
#        171723
#        188145
#        202242
#        218474
#        239127
#        254532
#        263884
#        282930
#        300578
#        319212
#
# Disc length: 4423 seconds
#
# Revision: 1
# Processed by: cddbd v1.5.2PL0 Copyright (c) Steve Scherf et al.
# Submitted via: ExactAudioCopy v0.95b4
#
DISCID=28114514
DTITLE=Various Artist - Beach Music Anthology Vol.2 [CD2)
DYEAR=1900
DGENRE=R&B
TTITLE0=Jimmy Buffett - In The Shelter
TTITLE1=Charlie Daniels - Boogie Woogie Baltimore
TTITLE2=Embers - Little Egypt (Ying Yang)
TTITLE3=Little Richard - Midnight Special
TTITLE4=James Brown - How Do You Stop
TTITLE5=Etta James - Baby What You Want Me To Do
TTITLE6=Delbert McClinton - Maybe Someday Baby (Live)
TTITLE7=Dan Penn - Memphis Women And Chicken
TTITLE8=Teddy Pendergrass - Nine Times Out Of Ten
TTITLE9=Lou Rawls and Diane Reeves - Fine Brown Frame
TTITLE10=Neville Brothers - Old Habits Die Hard
TTITLE11=Happy Brown and Kip Anderson - Rocket 88
TTITLE12=NRBO - Want You To Feel Good Too
TTITLE13=Daryl Hall - Stop Loving Me, Stop Loving You
TTITLE14=Teddy Pendergrass - Do Me
TTITLE15=Bobby Womack - Fly Me To The Moon
TTITLE16=Billy Paul - I Trust You
TTITLE17=Alexander O'Neal - Since I've Been Loving You
TTITLE18=Carrie Lucas - It's Not What You Got
TTITLE19=Jay Booker - Hot Red Sweater
EXTD=
EXTT0=
EXTT1=
EXTT2=
EXTT3=
EXTT4=
EXTT5=
EXTT6=
EXTT7=
EXTT8=
EXTT9=
EXTT10=
EXTT11=
EXTT12=
EXTT13=
EXTT14=
EXTT15=
EXTT16=
EXTT17=
EXTT18=
EXTT19=
PLAYORDER=
